<?xml version="1.0" encoding="UTF-8" standalone="no"?>
<!-- Created with Inkscape (http://www.inkscape.org/) -->

<svg
   xmlns:dc="http://purl.org/dc/elements/1.1/"
   xmlns:cc="http://creativecommons.org/ns#"
   xmlns:rdf="http://www.w3.org/1999/02/22-rdf-syntax-ns#"
   xmlns:svg="http://www.w3.org/2000/svg"
   xmlns="http://www.w3.org/2000/svg"
   xmlns:xlink="http://www.w3.org/1999/xlink"
   xmlns:sodipodi="http://sodipodi.sourceforge.net/DTD/sodipodi-0.dtd"
   xmlns:inkscape="http://www.inkscape.org/namespaces/inkscape"
   width="50"
   height="50"
   id="svg2"
   version="1.1"
   inkscape:version="0.48.4 r9939"
   sodipodi:docname="Logo Icon.svg"
   inkscape:export-filename="C:\Users\gholst3\Dropbox\Research\Autoswapper\C++\Autopatch4\img\Logo icon hi.png"
   inkscape:export-xdpi="460.79999"
   inkscape:export-ydpi="460.79999">
  <defs
     id="defs4">
    <linearGradient
       id="linearGradient5921">
      <stop
         style="stop-color:#e9e9e9;stop-opacity:1;"
         offset="0"
         id="stop5923" />
      <stop
         style="stop-color:#ffffff;stop-opacity:1;"
         offset="1"
         id="stop5925" />
    </linearGradient>
    <inkscape:path-effect
       effect="bend_path"
       id="path-effect5905"
       is_visible="true"
       bendpath="m 60.758928,24.866071 9.910714,0"
       prop_scale="1"
       scale_y_rel="false"
       vertical="false" />
    <linearGradient
       id="linearGradient4958">
      <stop
         style="stop-color:#3126ff;stop-opacity:0.4954955;"
         offset="0"
         id="stop4960" />
      <stop
         style="stop-color:#3126ff;stop-opacity:0;"
         offset="1"
         id="stop4962" />
    </linearGradient>
    <linearGradient
       id="linearGradient4920">
      <stop
         style="stop-color:#0c00f4;stop-opacity:1;"
         offset="0"
         id="stop4922" />
      <stop
         style="stop-color:#9791ff;stop-opacity:0;"
         offset="1"
         id="stop4924" />
    </linearGradient>
    <linearGradient
       inkscape:collect="always"
       xlink:href="#linearGradient4920"
       id="linearGradient4926"
       x1="174.25131"
       y1="1063.7328"
       x2="244.78807"
       y2="996.30505"
       gradientUnits="userSpaceOnUse" />
    <radialGradient
       inkscape:collect="always"
       xlink:href="#linearGradient4958"
       id="radialGradient4966"
       cx="209.75824"
       cy="978.8609"
       fx="209.75824"
       fy="978.8609"
       r="19.617584"
       gradientTransform="matrix(0.74488781,0.51129647,-2.9080836,4.2366732,2900.1212,-3227.5815)"
       gradientUnits="userSpaceOnUse" />
    <clipPath
       clipPathUnits="userSpaceOnUse"
       id="clipPath4999">
      <rect
         y="1001.3622"
         x="0"
         height="51"
         width="241"
         id="rect5001"
         style="fill:none;stroke:#000000;stroke-opacity:1" />
    </clipPath>
    <linearGradient
       inkscape:collect="always"
       xlink:href="#linearGradient4920"
       id="linearGradient3827"
       gradientUnits="userSpaceOnUse"
       x1="174.25131"
       y1="1063.7328"
       x2="244.78807"
       y2="996.30505" />
    <clipPath
       clipPathUnits="userSpaceOnUse"
       id="clipPath3845">
      <path
         sodipodi:nodetypes="sssssssscsssssssscsssssssssssscsss"
         inkscape:connector-curvature="0"
         id="path3847"
         d="m 196.83791,1028.2557 c 0.11268,0.8615 -0.2429,1.7595 -0.0474,2.6061 0.18756,0.8121 1.13718,2.0374 1.13718,2.2269 0,0.1896 -1.15702,2.6761 -0.90027,4.0276 0.11039,0.581 1.05113,0.8801 0.99504,1.4689 -0.0699,0.7337 -1.27127,0.8869 -1.56363,1.5636 -0.20682,0.4787 0.1434,1.0783 -0.0474,1.5636 -0.12285,0.3125 -0.43205,0.5147 -0.66335,0.7581 -1.48495,1.5627 -4.64351,4.5014 -4.64351,4.5014 0,0 2.0167,-0.729 3.31438,-2.187 0.66506,-0.7472 1.57035,-1.0738 2.03989,-1.651 0.76302,-0.938 0.61526,-2.4604 1.46885,-3.3168 0,0 1.42575,-0.8569 2.22699,-0.995 1.7799,-0.3069 3.66464,0.9214 5.40163,0.4264 1.28205,-0.3654 1.89998,-2.5404 3.22202,-2.3691 0,0 2.02962,2.6969 3.17464,3.9327 1.76937,1.9097 5.25948,5.3543 5.68593,5.3543 0.42644,0 7.06002,-2.2744 7.06002,-2.2744 0,0 -2.51637,0.1584 -3.74324,0.4264 -0.99054,0.2165 -2.70081,0.9477 -2.89034,0.9477 -0.18953,0 -3.64847,-3.0799 -4.21706,-3.838 -0.56859,-0.7581 -2.64316,-2.3557 -3.31679,-3.9328 -0.34942,-0.818 0.1407,-1.872 -0.28429,-2.6534 -0.7189,-1.3218 -2.09466,-2.3221 -3.50632,-2.8429 -1.15617,-0.4266 -2.52625,0.2934 -3.69585,-0.095 -1.06472,-0.3534 -1.62807,-1.8808 -2.7482,-1.9427 -0.68468,-0.038 -1.1668,1.2569 -1.80054,0.995 -1.04863,-0.4334 -0.59448,-2.1911 -0.94765,-3.2694 -0.58635,-1.7902 -1.38257,-3.5083 -1.9427,-5.3068 -0.65193,-2.0934 -2.22379,-4.2534 -1.6458,-6.3683 0.37489,-1.3718 3.0199,-3.0135 3.0199,-3.0135 0,0 -2.7096,0.6368 -3.50632,2.3217 -1.54354,3.2643 1.1288,5.879 2.32176,9.2871 0.41788,1.1937 0.87838,2.3943 1.04241,3.6484 z"
         style="fill:none;stroke:#000000;stroke-width:0.53068614px;stroke-linecap:butt;stroke-linejoin:miter;stroke-opacity:1" />
    </clipPath>
    <linearGradient
       inkscape:collect="always"
       xlink:href="#linearGradient4920"
       id="linearGradient3849"
       gradientUnits="userSpaceOnUse"
       x1="192.46559"
       y1="1045.5186"
       x2="222.6452"
       y2="1016.1265" />
    <filter
       inkscape:collect="always"
       id="filter3918"
       color-interpolation-filters="sRGB">
      <feGaussianBlur
         inkscape:collect="always"
         stdDeviation="0.84459937"
         id="feGaussianBlur3920" />
    </filter>
    <filter
       inkscape:collect="always"
       id="filter3944"
       color-interpolation-filters="sRGB">
      <feGaussianBlur
         inkscape:collect="always"
         stdDeviation="1.0964421"
         id="feGaussianBlur3946" />
    </filter>
    <linearGradient
       inkscape:collect="always"
       xlink:href="#linearGradient4920"
       id="linearGradient3982"
       gradientUnits="userSpaceOnUse"
       x1="192.46559"
       y1="1045.5186"
       x2="222.6452"
       y2="1016.1265" />
    <radialGradient
       inkscape:collect="always"
       xlink:href="#linearGradient4958"
       id="radialGradient3984"
       gradientUnits="userSpaceOnUse"
       gradientTransform="matrix(0.74488781,0.51129647,-2.9080836,4.2366732,2900.1212,-3227.5815)"
       cx="209.75824"
       cy="978.8609"
       fx="209.75824"
       fy="978.8609"
       r="19.617584" />
    <clipPath
       clipPathUnits="userSpaceOnUse"
       id="clipPath3986">
      <rect
         style="fill:#000000;fill-opacity:0.28494622;stroke:none"
         id="rect3988"
         width="50"
         height="50"
         x="182.00012"
         y="1003.1998" />
    </clipPath>
    <radialGradient
       inkscape:collect="always"
       xlink:href="#linearGradient5921"
       id="radialGradient5929"
       cx="26.560698"
       cy="27.726135"
       fx="26.560698"
       fy="27.726135"
       r="28.744518"
       gradientTransform="matrix(0.87162628,0,0,0.87171487,1.8489985,1003.193)"
       gradientUnits="userSpaceOnUse" />
    <filter
       inkscape:collect="always"
       id="filter5951">
      <feGaussianBlur
         inkscape:collect="always"
         stdDeviation="0.23906036"
         id="feGaussianBlur5953" />
    </filter>
    <filter
       inkscape:collect="always"
       id="filter5955">
      <feGaussianBlur
         inkscape:collect="always"
         stdDeviation="0.23906036"
         id="feGaussianBlur5957" />
    </filter>
    <filter
       inkscape:collect="always"
       id="filter5959">
      <feGaussianBlur
         inkscape:collect="always"
         stdDeviation="0.23906036"
         id="feGaussianBlur5961" />
    </filter>
  </defs>
  <sodipodi:namedview
     id="base"
     pagecolor="#ffffff"
     bordercolor="#666666"
     borderopacity="1.0"
     inkscape:pageopacity="0.0"
     inkscape:pageshadow="2"
     inkscape:zoom="11.313709"
     inkscape:cx="39.05833"
     inkscape:cy="19.70106"
     inkscape:document-units="px"
     inkscape:current-layer="layer1"
     showgrid="false"
     inkscape:window-width="1920"
     inkscape:window-height="1018"
     inkscape:window-x="1912"
     inkscape:window-y="-8"
     inkscape:window-maximized="1"
     inkscape:snap-smooth-nodes="true"
     inkscape:object-nodes="true"
     inkscape:snap-global="false" />
  <metadata
     id="metadata7">
    <rdf:RDF>
      <cc:Work
         rdf:about="">
        <dc:format>image/svg+xml</dc:format>
        <dc:type
           rdf:resource="http://purl.org/dc/dcmitype/StillImage" />
        <dc:title></dc:title>
      </cc:Work>
    </rdf:RDF>
  </metadata>
  <g
     inkscape:label="Layer 1"
     inkscape:groupmode="layer"
     id="layer1"
     transform="translate(0,-1002.3622)">
    <rect
       style="fill:url(#radialGradient5929);fill-opacity:1;stroke:none"
       id="rect5919"
       width="50"
       height="50"
       x="0"
       y="1002.3622"
       ry="0.81463921" />
    <path
       sodipodi:nodetypes="sccsssssscsssscscssssscsccssssccscsscsccscccssccccccccccccsscccsccsccsssssscssssssassccssssssscscscscsssssscsssscssscssscsssccssscsssssccssscsccsssscscccsssssscssssscssscccccccsssssssscccscsssscsssccscsscsscssssccscsccssss"
       style="fill:#bbbbbb;stroke:#000000;stroke-width:0.05000000000000000;stroke-linecap:butt;stroke-linejoin:miter;stroke-miterlimit:4;stroke-opacity:1;stroke-dasharray:none;fill-opacity:1;filter:url(#filter5951)"
       d="m 14.862894,1010.6401 c -0.169429,-0.3488 -0.728922,-0.9068 -0.728922,-0.9068 l -0.391098,-0.5063 c 0,0 -0.842064,-1.0627 -1.362581,-1.4889 -0.213457,-0.1747 -0.435077,-0.3928 -0.708805,-0.4273 -0.413225,-0.052 -0.780965,0.3323 -1.196539,0.3598 -0.6931477,0.046 -1.3752892,-0.2004 -2.0574691,-0.3316 -0.2472783,-0.047 -0.4856153,-0.1543 -0.7371936,-0.1648 -0.7157527,-0.03 -1.4935815,-0.04 -2.1294967,0.2902 -0.2991392,0.1551 -0.6884957,0.7402 -0.6884957,0.7402 0,0 0.3830901,-0.6798 0.7096619,-0.8541 0.703132,-0.375 1.581679,-0.2699 2.3782356,-0.2451 0.8446999,0.026 1.6561125,0.4423 2.5008286,0.4168 0.511262,-0.015 1.003078,-0.4812 1.495596,-0.3432 0.83476,0.2339 1.863365,1.8143 1.863365,1.8143 0,0 -0.322837,-1.0049 -0.294218,-1.5201 0.03657,-0.6582 0.588431,-1.8879 0.588431,-1.8879 0,0 -0.25896,1.0587 -0.220664,1.5937 0.07167,1.0009 0.227034,2.0935 0.833612,2.893 0.197399,0.2603 0.526574,0.6262 0.833611,0.5149 0.170071,-0.061 0.216851,-0.3397 0.171625,-0.5149 -0.0694,-0.2687 -0.692137,-0.2977 -0.612948,-0.5638 0.0709,-0.2382 0.735535,-0.1226 0.735535,-0.1226 0,0 -0.506133,-0.6823 -0.637463,-1.0788 -0.242918,-0.7334 -0.24518,-2.3047 -0.24518,-2.3047 l 0.294218,0.3678 c 0,0 0.0073,0.907 0.09807,1.3485 0.09063,0.4405 0.06416,1.03 0.441322,1.2749 0.24077,0.1563 0.768662,0.1992 0.858128,-0.074 0.07394,-0.2254 -0.197258,-1.5689 -0.588432,-2.2311 -0.246948,-0.418 -1.054269,-1.0053 -1.054269,-1.0053 l 0.711018,0.3923 c 0,0 0.560817,0.4474 0.711019,0.7602 0.321761,0.6698 0.318734,2.2065 0.318734,2.2065 0,0 0.209378,-0.5443 0.27828,-0.8238 0.189843,-0.7703 0.159396,-1.5573 0.686503,-2.0931 0.285683,-0.2905 1.143762,-0.4421 1.143762,-0.4421 0,0 -0.820677,0.2279 -1.086145,0.526 -0.588574,0.661 -0.77722,2.8085 -0.77722,2.8085 l 0.171626,0.2452 c 0,0 0.578711,-1.1651 1.029753,-1.6182 0.287875,-0.2892 1.029753,-0.6621 1.029753,-0.6621 l -0.742894,0.602 1.037108,-0.013 c 0,0 -0.816181,0.065 -1.178088,0.2371 -0.165266,0.078 -0.238864,0.158 -0.424159,0.3482 -0.368048,0.3778 -0.628886,1.3516 -0.628886,1.3516 l 0.14711,0.1716 2.182093,-1.4711 0.686502,-1.7408 -0.637464,1.6428 1.152341,-0.049 -1.274928,0.2698 -0.392289,0.3187 -1.176863,0.9562 -0.269696,0.4903 0.441322,-0.098 1.054269,-0.6375 c 0,0 0.857721,-0.8424 1.162513,-1.3766 0.15745,-0.276 0.206339,-0.5987 0.296925,-0.9096 0.181528,-0.6233 0.428449,-1.9064 0.428449,-1.9064 l -0.03493,0.5151 -0.45543,2.2064 c 0,0 0.669438,-1.0813 1.269111,-1.123 0.402813,-0.028 1.011054,0.5836 1.011054,0.5836 l -0.147104,0.049 c 0,0 -0.525954,-0.525 -0.852307,-0.4838 -0.569033,0.072 -1.329793,1.1703 -1.329793,1.1703 l -1.323966,1.471 c 0,0 1.200627,-0.3843 1.29945,-0.3677 0.120885,0.02 0.295586,0.1972 0.220658,0.2942 -0.05902,0.077 -0.78957,0.095 -1.15234,0.2452 -0.180089,0.075 -0.482112,0.1239 -0.49036,0.3188 -0.0079,0.1861 0.261387,0.2947 0.441322,0.3432 0.294619,0.079 0.616352,-0.03 0.907165,-0.1226 0.202063,-0.064 0.563916,-0.2942 0.563916,-0.2942 0,0 -0.220346,0.3455 -0.39229,0.4413 -0.333371,0.1856 -0.754746,0.2763 -1.127825,0.1961 -0.299188,-0.064 -0.461098,-0.4495 -0.760056,-0.5148 -0.388527,-0.085 -0.81652,0.028 -1.176863,0.1961 -0.27309,0.1275 -0.646542,0.2897 -0.686501,0.5884 -0.03669,0.2742 0.257773,0.5044 0.465843,0.6866 0.23374,0.2046 0.546358,0.2984 0.833606,0.4168 0.604589,0.249 1.276312,0.325 1.863365,0.6129 0.655302,0.3214 1.301064,0.707 1.814326,1.2259 0.667885,0.6753 1.569152,2.3782 1.569152,2.3782 l -0.02449,0.5149 c 0,0 -0.661464,-1.124 -1.054275,-1.6427 -0.468348,-0.6184 -1.397504,-1.6182 -1.54463,-1.7408 -0.147092,-0.1226 -1.267486,-0.9752 -1.985952,-0.8826 -0.155698,0.021 -0.34564,0.1388 -0.367767,0.2942 -0.03806,0.2671 0.270713,0.4757 0.465839,0.662 0.868952,0.8299 1.865368,1.6848 3.040226,1.9369 0.444112,0.095 0.905387,-0.2961 1.348483,-0.1962 0.05749,0.013 0.147108,0.098 0.147108,0.098 0,0 -0.940733,0.4215 -1.422036,0.3432 -1.246688,-0.2028 -3.211853,-2.0105 -3.211853,-2.0105 0,0 0.757289,0.5939 0.980721,1.0053 0.123972,0.2282 0.171626,0.76 0.171626,0.76 0,0 0.308244,1.1416 0.171625,1.6918 -0.04262,0.1713 -0.294219,0.441 -0.294219,0.441 0,0 -0.380327,-0.8747 -0.539392,-1.3239 -0.33916,-0.9579 -0.833617,-2.7706 -0.882649,-2.9177 -0.04904,-0.1472 -0.486593,-0.5934 -0.833607,-0.6375 -0.228879,-0.029 -0.259058,-0.094 -0.334074,0.124 -0.21292,0.6194 0.521545,1.2846 0.652803,1.862 0.214612,0.944 0.331702,1.9106 0.588432,2.8441 0.683344,2.4845 2.52535,7.3064 2.52535,7.3064 0,0 -0.828987,-1.2355 -1.127829,-1.9125 -0.538635,-1.2203 -0.853509,-2.5307 -1.176857,-3.8248 -0.312765,-1.2518 -0.435292,-2.6426 -0.893304,-3.8488 -0.256236,-0.6749 -0.677078,-1.7241 -0.969814,-1.9119 -0.311079,-0.1997 -0.318981,1.1513 -0.318981,1.1513 0,0 0.35737,1.4939 0.367772,2.2557 0.01664,1.2204 -0.28508,2.4254 -0.49036,3.6287 -0.129123,0.7568 -0.3635,1.4947 -0.465844,2.2556 -0.102612,0.7629 -0.147103,2.3047 -0.147103,2.3047 0,0 -0.256061,-0.6087 -0.269697,-0.9317 -0.05097,-1.2074 0.514251,-2.3628 0.711018,-3.5552 0.185191,-1.1221 0.431778,-2.2461 0.441322,-3.3834 0.0067,-0.7978 -0.269696,-2.3782 -0.269696,-2.3782 0,0 -0.236656,1.7453 -0.294218,2.6234 -0.0556,0.8483 0.108692,1.7145 -0.04904,2.5499 -0.148718,0.7876 -0.678775,1.4692 -0.833605,2.2556 -0.181655,0.9228 -0.09807,2.8196 -0.09807,2.8196 l -0.09808,0.025 c 0,0 -0.21074,-1.845 -0.04904,-2.746 0.142617,-0.7947 0.724424,-1.464 0.88265,-2.2557 0.148976,-0.7455 0.01697,-1.5206 0.04904,-2.2801 0.04937,-1.17 0.220658,-3.5061 0.220658,-3.5061 0,0 -0.156786,-0.6893 -0.441321,-0.7846 -0.135346,-0.045 -0.337347,0.041 -0.392284,0.1716 -0.941349,2.2571 -0.268252,4.071 -0.833612,5.3204 -0.352625,0.7792 -1.327794,1.119 -1.78981,1.8388 -0.440229,0.6859 -0.852053,1.4658 -0.882644,2.2803 -0.02115,0.5632 0.49036,1.6181 0.49036,1.6181 l -0.02449,0.3923 c 0,0 -0.697311,-1.2688 -0.686502,-1.9615 0.01313,-0.8407 0.453569,-1.6457 0.907161,-2.3537 0.455189,-0.7104 1.405637,-1.051 1.765293,-1.8143 0.448544,-0.952 0.343251,-3.1382 0.343251,-3.1382 0,0 -1.375909,0.2036 -1.825481,1.6059 -0.09059,0.2827 -0.365241,0.5874 -0.365241,0.5874 l -1.045647,2.2443 c 0,0 0.449824,-1.2597 0.735541,-1.8633 0.280202,-0.592 0.550283,-1.2023 0.956198,-1.7162 0.342087,-0.4331 0.722865,-0.783 1.373005,-0.9072 0.179501,-0.034 0.179852,-0.3197 0.24518,-0.4904 0.221103,-0.5777 0.490354,-1.7897 0.490354,-1.7897 0,0 -0.232196,-0.4224 -0.441322,-0.4905 -0.262177,-0.085 -0.809089,0.1716 -0.809089,0.1716 -2.179502,1.4487 -3.888029,3.9602 -4.7650601,6.1639 0.9348401,-2.7024 2.0225771,-4.0409 4.5474271,-6.3145 0,0 -2.524806,-0.045 -3.58265,0.5429 -0.1452968,0.08 -0.199492,0.2705 -0.3293892,0.3739 -0.2513422,0.2003 -0.5708676,0.215 -0.8474676,0.4598 -0.2666759,0.2359 -0.315121,0.6263 -0.6003215,0.7979 -0.1418095,0.085 -0.4192992,0.2186 -0.6301816,0.3997 -0.228034,0.1959 -0.3910207,0.4405 -0.5766948,0.5416 -0.3900486,0.2124 -1.5027257,-0.1456 -1.5027257,-0.1456 0,0 0.9854656,0.2429 1.4465589,0.098 0.4422062,-0.1389 -0.2623866,-0.1615 1.1523407,-0.9317 0.2632599,-0.1433 0.1643047,-0.6145 0.3922893,-0.8091 0.2792636,-0.2383 0.6531052,-0.21 0.9571872,-0.4158 0.1300235,-0.088 0.3145882,-0.2122 0.2942128,-0.3678 -0.025428,-0.194 -0.3753135,-0.2514 -0.3753135,-0.2514 0,0 -1.619316,-1.3533 -1.7524205,-1.7049 -0.040311,-0.1065 -0.1220381,0.1479 -0.2024577,0.067 -0.069095,-0.069 -0.1950764,0.382 -0.1532327,0.6498 0.064504,0.4128 -0.018398,1.2505 -0.018398,1.2505 -0.039378,0.023 -0.1279036,-1.4516 -0.018398,-1.9491 -0.3596558,-0.1362 -1.019615,1.6426 -1.2810625,1.5446 l 0.3677675,-0.6866 -0.9071604,0.7111 0.8581277,-0.9071 -0.2206638,-0.3923 c 0,0 0.2027872,0.248 0.3126056,0.2453 0.1779688,-0.01 0.5548805,-0.3107 0.6190766,-0.5394 0.013455,-0.047 0.0134,-0.1149 -0.024494,-0.1471 -0.037401,-0.032 -0.1091868,0.031 -0.1471093,0 -0.032238,-0.026 -0.031195,-0.081 -0.024494,-0.1226 0.010545,-0.065 0.037126,-0.1465 0.098071,-0.1716 0.1411943,-0.058 0.3394396,0.2363 0.441322,0.1226 0.1468401,-0.1639 -0.1080389,-0.4408 -0.2451746,-0.613 -0.2416102,-0.3031 -1.0602229,-0.5969 -1.0602229,-0.5969 l 1.0357011,0.4008 -0.2451801,-0.6865 c 0,0 0.4408936,0.9189 0.4499939,0.6868 l 0.040366,-1.03 c 0,0 0.00786,0.7244 0.073554,1.0787 0.040531,0.2186 -0.026087,0.6319 0.1961419,0.6375 0.095616,0 0.090838,-0.1743 0.098071,-0.2696 0.025208,-0.3325 -0.1753986,-0.4516 -0.1267942,-0.7814 0.020265,-0.1376 0.018453,-0.4978 0.018453,-0.4978 0,0 0.034984,0.2013 0.083835,0.3229 0.091311,0.2272 0.0547,0.7001 0.1961474,0.6866 0,0 0.026691,-0.3268 0.024494,-0.4905 -0.0044,-0.3196 -0.073554,-0.9561 -0.073554,-0.9561 l 0.196142,0.7355 c 0,0 0.1101701,-0.2136 0.1961421,-0.2943 0.3098102,-0.2905 1.1033078,-0.6374 1.1033078,-0.6374 0,0 -0.9854656,0.6226 -1.0297532,0.7356 -0.1660294,0.4234 -0.4175089,0.9572 -0.294213,1.2013 0.035643,0.071 0.4413221,-0.024 0.4413221,-0.024 0,0 -0.4553928,0.2033 -0.465844,0.2697 -0.016201,0.1027 0.1178202,0.2362 0.220664,0.2206 0.8167178,-0.1239 1.7246032,0.9531 1.6640152,1.0137 0,0 -1.1996377,-1.0614 -1.5778346,-0.8478 -0.072571,0.042 -0.040147,0.1968 -0.012632,0.2754 0.2470693,0.7063 0.9776174,1.3275 1.7162556,1.4466 0.304147,0.049 0.777004,-0.2151 0.858128,-0.3432 0.07004,-0.1107 0.06194,-2.4516 -1.4251022,-1.8192 l 0.3953484,-0.2158 c 0,0 -0.2115855,-0.094 -0.2911483,-0.1741 -0.092568,-0.094 -0.1992065,-0.3407 -0.1992065,-0.3407 0,0 0.1594717,0.1205 0.2451801,0.1715 0.1884092,0.1122 0.5884315,0.2943 0.5884315,0.2943 0.605977,0.098 0.75982,1.0846 0.90716,2.084 0,0 1.479627,-0.025 2.206615,-0.1471 0.551372,-0.093 1.247089,-0.023 1.618185,-0.4414 0.148054,-0.1668 0.107001,-0.439 0.09807,-0.6619 -0.0117,-0.292 -0.0698,-0.5914 -0.197504,-0.8544 z"
       id="path5913"
       inkscape:connector-curvature="0" />
    <path
       inkscape:connector-curvature="0"
       id="path5915"
       d="m 39.493847,1037.2684 c -0.0926,0.536 0.0878,1.6298 0.0878,1.6298 l 0.03093,0.8968 c 0,0 0.08903,1.8999 0.332958,2.8116 0.100089,0.3738 0.173954,0.8037 0.457494,1.0671 0.428104,0.3975 1.161632,0.2609 1.657506,0.5698 0.827187,0.5153 1.402429,1.3544 2.072035,2.0624 0.243179,0.256 0.4268,0.5733 0.704761,0.7913 0.790709,0.6202 1.668501,1.2684 2.663195,1.413 0.467724,0.069 1.390283,-0.2794 1.390283,-0.2794 0,0 -0.99296,0.4607 -1.507652,0.3918 -1.107938,-0.1486 -2.022585,-0.9876 -2.909592,-1.6681 -0.94086,-0.7211 -1.524236,-1.8598 -2.507282,-2.5223 -0.59463,-0.4015 -1.536543,-0.2733 -1.98455,-0.8337 -0.759315,-0.9498 -0.636943,-3.5923 -0.636943,-3.5923 0,0 -0.455064,1.409 -0.909497,1.9725 -0.580575,0.7198 -2.216018,1.6685 -2.216018,1.6685 0,0 1.161806,-0.9937 1.556232,-1.6345 0.737879,-1.1989 1.45551,-2.5705 1.419204,-3.9778 -0.01178,-0.4581 -0.08707,-1.1445 -0.527929,-1.2691 -0.243663,-0.07 -0.525141,0.2094 -0.617076,0.446 -0.140957,0.3629 0.544622,0.9057 0.236546,1.1441 -0.275791,0.2132 -0.938187,-0.4627 -0.938187,-0.4627 0,0 0.01786,1.1916 -0.157201,1.7509 -0.323797,1.0342 -1.607767,2.8257 -1.607767,2.8257 l -0.03397,-0.6597 c 0,0 0.734317,-1.0392 0.992416,-1.6163 0.257441,-0.576 0.770261,-1.2258 0.541176,-1.8135 -0.146273,-0.3753 -0.712438,-0.8563 -1.038034,-0.6184 -0.268773,0.1963 -1.059896,1.9485 -1.156527,3.0232 -0.06097,0.6782 0.37774,2.0082 0.37774,2.0082 l -0.488672,-1.0289 c 0,0 -0.272473,-0.9689 -0.187446,-1.4481 0.181917,-1.0265 1.443582,-2.7743 1.443582,-2.7743 0,0 -0.684151,0.4486 -0.991482,0.7105 -0.846944,0.722 -1.456642,1.6434 -2.495739,1.8221 -0.56326,0.097 -1.664775,-0.4331 -1.664775,-0.4331 0,0 1.121384,0.4124 1.667842,0.2903 1.211622,-0.2711 3.184823,-2.5627 3.184823,-2.5627 l 0.0053,-0.4198 c 0,0 -1.613134,0.8533 -2.497878,1 -0.564692,0.094 -1.715044,-0.088 -1.715044,-0.088 l 1.339092,-0.077 -1.191955,-0.8344 c 0,0 0.982886,0.5943 1.536025,0.6946 0.252109,0.046 0.401443,0.015 0.768232,-0.049 0.728558,-0.1291 1.822989,-1.0246 1.822989,-1.0246 l -0.02706,-0.3159 -3.689999,-0.1109 -2.207283,1.4208 2.071186,-1.3492 -1.352685,-0.8878 1.673102,0.7366 0.70778,-0.042 2.123411,-0.1263 0.708642,-0.3376 -0.582925,-0.2497 -1.722828,-0.1375 c 0,0 -1.666718,0.2573 -2.45128,0.6161 -0.405324,0.1855 -0.725231,0.513 -1.08297,0.793 -0.717112,0.5613 -2.04894,1.8207 -2.04894,1.8207 l 0.46154,-0.5582 2.325305,-2.1402 c 0,0 -1.647863,0.6834 -2.365058,0.24 -0.481746,-0.298 -0.673794,-1.4926 -0.673794,-1.4926 l 0.207678,0.065 c 0,0 0.169225,1.0285 0.574688,1.2489 0.707105,0.3838 2.472906,-0.2443 2.472906,-0.2443 l 2.712475,-0.5915 c 0,0 -1.682222,-0.5453 -1.781193,-0.6452 -0.121313,-0.122 -0.175222,-0.4665 -0.01052,-0.5158 0.130277,-0.039 0.977137,0.5384 1.513329,0.6642 0.266537,0.062 0.650592,0.2537 0.819566,0.038 0.161373,-0.2055 -0.05643,-0.5497 -0.22168,-0.7523 -0.270899,-0.3312 -0.726613,-0.4705 -1.133681,-0.603 -0.282559,-0.093 -0.883207,-0.1263 -0.883207,-0.1263 0,0 0.53387,-0.2131 0.808161,-0.1814 0.531689,0.062 1.085915,0.3032 1.445202,0.7 0.288385,0.3179 0.157169,0.8895 0.444228,1.2088 0.372952,0.4149 0.952977,0.6366 1.501059,0.7401 0.415455,0.079 0.973638,0.1995 1.263722,-0.108 0.266301,-0.2824 0.119377,-0.7857 0.03156,-1.1635 -0.09871,-0.4245 -0.378001,-0.7872 -0.608246,-1.1573 -0.484777,-0.7787 -1.18767,-1.4153 -1.620621,-2.2238 -0.483262,-0.9027 -0.903091,-1.8706 -1.062854,-2.8819 -0.207828,-1.3161 0.159888,-3.9937 0.159888,-3.9937 l 0.449484,-0.5664 c 0,0 -0.166871,1.8218 -0.144144,2.7344 0.02713,1.0878 0.26687,2.9873 0.33407,3.2474 0.06717,0.2601 0.645247,2.1487 1.539429,2.6314 0.194542,0.1038 0.507345,0.1248 0.659787,-0.034 0.262047,-0.273 0.08114,-0.7635 0.01136,-1.1354 -0.310269,-1.6569 -0.745255,-3.4464 -1.877053,-4.6956 -0.428079,-0.4717 -1.273715,-0.404 -1.696623,-0.8805 -0.05484,-0.062 -0.08732,-0.2322 -0.08732,-0.2322 0,0 1.416649,0.2903 1.900764,0.7735 1.253981,1.2517 2.012282,4.9199 2.012282,4.9199 0,0 -0.376312,-1.2966 -0.293966,-1.9482 0.04563,-0.3614 0.426782,-1.0061 0.426782,-1.0061 0,0 0.583614,-1.5527 1.189721,-2.0675 0.188802,-0.1604 0.696209,-0.2615 0.696209,-0.2615 0,0 -0.282977,1.3077 -0.46959,1.9496 -0.397991,1.3688 -1.318981,3.8384 -1.383574,4.046 -0.06467,0.2079 0.06839,1.0744 0.427542,1.4087 0.236959,0.2205 0.218112,0.3193 0.482052,0.1319 0.749677,-0.5311 0.457741,-1.8901 0.780995,-2.6554 0.528474,-1.251 1.186534,-2.4478 1.658437,-3.7213 1.255897,-3.3894 3.10584,-10.39 3.10584,-10.39 0,0 -0.06735,2.0861 -0.281269,3.1018 -0.385626,1.8311 -1.099899,3.5815 -1.791172,5.3202 -0.668693,1.682 -1.667886,3.3665 -2.133801,5.1155 -0.260731,0.9784 -0.640435,2.5181 -0.460763,2.9718 0.190821,0.4821 1.305991,-1.0503 1.305991,-1.0503 0,0 0.816113,-1.9942 1.42801,-2.8704 0.980282,-1.4038 2.310581,-2.5292 3.52964,-3.7318 0.766727,-0.7563 1.637868,-1.4049 2.37745,-2.1878 0.741525,-0.785 2.054594,-2.5047 2.054594,-2.5047 0,0 -0.206726,0.903 -0.455659,1.282 -0.930536,1.4171 -2.520362,2.2703 -3.720799,3.4674 -1.12969,1.1265 -2.330869,2.2049 -3.272936,3.4925 -0.660852,0.9033 -1.640023,2.9296 -1.640023,2.9296 0,0 1.698574,-1.7941 2.483108,-2.7472 0.757901,-0.9206 1.27999,-2.0419 2.14366,-2.8642 0.814266,-0.7755 1.976102,-1.1177 2.796347,-1.8868 0.96248,-0.9024 2.420331,-3.1313 2.420331,-3.1313 l 0.132185,0.052 c 0,0 -1.270603,2.2741 -2.192505,3.1681 -0.813129,0.7884 -2.02384,1.0744 -2.852291,1.8466 -0.780089,0.7271 -1.264363,1.7182 -1.922755,2.5569 -1.014204,1.2924 -3.122055,3.8131 -3.122055,3.8131 0,0 -0.385798,0.9134 -0.139732,1.2549 0.117315,0.1621 0.417823,0.2295 0.58733,0.1262 2.9203,-1.8002 3.638795,-4.4175 5.305745,-5.3777 1.039646,-0.5987 2.428625,-0.1874 3.544237,-0.629 1.063039,-0.4208 2.170689,-0.9719 2.872428,-1.8747 0.485225,-0.6241 0.766323,-2.2444 0.766323,-2.2444 l 0.349102,-0.4269 c 0,0 -0.244599,2.0162 -0.824079,2.7963 -0.703302,0.9469 -1.864096,1.5032 -2.960452,1.9382 -1.100139,0.4364 -2.461614,0.046 -3.49625,0.6212 -1.290386,0.7171 -2.960466,3.2935 -2.960466,3.2935 0,0 1.733922,0.8947 3.394174,-0.3345 0.334655,-0.2478 0.896975,-0.37 0.896975,-0.37 l 3.028619,-1.7002 c 0,0 -1.543782,1.0665 -2.363441,1.5201 -0.803877,0.4449 -1.611211,0.9189 -2.494336,1.1718 -0.744263,0.2133 -1.464475,0.3001 -2.306705,-0.091 -0.232297,-0.1081 -0.466622,0.2168 -0.680798,0.3578 -0.724854,0.477 -2.023901,1.6371 -2.023901,1.6371 0,0 -0.08138,0.6712 0.101071,0.9199 0.229034,0.3116 1.062088,0.467 1.062088,0.467 3.668708,0.1347 7.671151,-1.3273 10.474467,-3.1194 -3.277487,2.3128 -5.612398,2.9467 -10.349881,3.4693 0,0 2.839015,2.1184 4.525302,2.315 0.231002,0.028 0.448709,-0.1449 0.681329,-0.1563 0.450291,-0.022 0.82628,0.2225 1.341775,0.1702 0.496906,-0.051 0.871737,-0.4554 1.337095,-0.4174 0.231122,0.02 0.656584,0.094 1.045067,0.06 0.420139,-0.037 0.806062,-0.1817 1.10033,-0.1448 0.618192,0.077 1.592455,1.3963 1.592455,1.3963 0,0 -0.923607,-1.0836 -1.567452,-1.296 -0.617418,-0.204 0.166636,0.3987 -2.07542,0.1178 -0.417194,-0.052 -0.690289,0.5655 -1.109306,0.6004 -0.513208,0.043 -0.915858,-0.2956 -1.430724,-0.3101 -0.220155,0 -0.532075,-0.015 -0.636267,0.1781 -0.12987,0.2417 0.221656,0.5935 0.221656,0.5935 0,0 0.736417,2.8675 0.600146,3.3768 -0.04128,0.1545 0.260104,-0.069 0.285468,0.09 0.02221,0.1347 0.534972,-0.2754 0.706578,-0.6147 0.264524,-0.523 1.04484,-1.4092 1.04484,-1.4092 0.06369,0 -1.042849,1.7581 -1.574921,2.2352 0.298146,0.4496 2.506309,-1.0363 2.723869,-0.7105 l -0.981076,0.4808 1.615527,-0.067 -1.720157,0.3306 -0.06986,0.6276 c 0,0 -0.02793,-0.4486 -0.155224,-0.5354 -0.210902,-0.1347 -0.886426,-0.101 -1.146803,0.108 -0.05381,0.042 -0.109333,0.1192 -0.09254,0.1876 0.0164,0.067 0.149751,0.055 0.167565,0.1206 0.01543,0.056 -0.03078,0.1178 -0.07248,0.1596 -0.06524,0.066 -0.162244,0.1361 -0.252209,0.1151 -0.208314,-0.049 -0.193158,-0.5471 -0.402301,-0.501 -0.301455,0.066 -0.237857,0.5905 -0.222648,0.8989 0.02703,0.5431 0.718911,1.548 0.718911,1.548 l -0.851542,-1.3046 -0.28282,0.9828 c 0,0 0.250179,-1.4077 0.04977,-1.1507 l -0.889324,1.1401 c 0,0 0.584125,-0.8316 0.799439,-1.2889 0.132816,-0.2821 0.547104,-0.6983 0.298558,-0.8867 -0.108912,-0.079 -0.246184,0.1248 -0.332448,0.2268 -0.300958,0.358 -0.169974,0.6579 -0.495369,0.9939 -0.135748,0.1403 -0.428604,0.5518 -0.428604,0.5518 0,0 0.124975,-0.2579 0.168888,-0.4364 0.08202,-0.3336 0.51092,-0.8422 0.338752,-0.9427 0,0 -0.297979,0.3505 -0.429506,0.5387 -0.256671,0.3676 -0.699058,1.1492 -0.699058,1.1492 l 0.378798,-0.9984 c 0,0 -0.300379,0.1532 -0.464381,0.1747 -0.590742,0.077 -1.778603,-0.1773 -1.778603,-0.1773 0,0 1.632259,0.098 1.775227,0 0.535783,-0.3463 1.259294,-0.7484 1.318718,-1.1275 0.01754,-0.1094 -0.522335,-0.334 -0.522335,-0.334 0,0 0.685168,0.1414 0.75144,0.074 0.102544,-0.1038 0.0592,-0.3654 -0.07073,-0.4319 -1.031723,-0.5276 -1.184019,-2.4977 -1.06539,-2.5171 0,0 0.497388,2.1912 1.103061,2.2575 0.117049,0.014 0.206868,-0.1913 0.239877,-0.3032 0.296882,-1.007 -0.02663,-2.3127 -0.770442,-3.0531 -0.306317,-0.3048 -1.06116,-0.3912 -1.258449,-0.3117 -0.170418,0.069 -2.077868,2.7418 0.133728,3.2391 l -0.627013,-0.079 c 0,0 0.164041,0.2804 0.189081,0.4367 0.02848,0.1829 -0.05206,0.5513 -0.05206,0.5513 0,0 -0.08297,-0.2679 -0.138848,-0.3961 -0.122744,-0.2821 -0.429281,-0.817 -0.429281,-0.817 -0.609995,-0.6079 0.02257,-1.8576 0.673038,-3.1166 0,0 -1.705826,-1.183 -2.633868,-1.6392 -0.704183,-0.3455 -1.439319,-0.9948 -2.204589,-0.8221 -0.305212,0.069 -0.481322,0.4124 -0.653656,0.6736 -0.225756,0.3421 -0.404719,0.7308 -0.474598,1.135 z"
       style="fill:#bbbbbb;stroke:#000000;stroke-width:0.05000000000000000;stroke-linecap:butt;stroke-linejoin:miter;stroke-miterlimit:4;stroke-opacity:1;stroke-dasharray:none;fill-opacity:1;filter:url(#filter5955)"
       sodipodi:nodetypes="sccsssssscsssscscssssscsccssssccscsscsccscccssccccccccccccsscccsccsccsssssscssssssassccssssssscscscscsssssscsssscssscssscsssccssscsssssccssscsccsssscscccsssssscssssscssscccccccsssssssscccscsssscsssccscsscsscssssccscsccssss" />
    <path
       sodipodi:nodetypes="sccsssssscsssscscssssscsccssssccscsscsccscccssccccccccccccsscccsccsccsssssscssssssassccssssssscscscscsssssscsssscssscssscsssccssscsssssccssscsccsssscscccsssssscssssscssscccccccsssssssscccscsssscsssccscsscsscssssccscsccssss"
       style="fill:#bbbbbb;stroke:#000000;stroke-width:0.05000000000000000;stroke-linecap:butt;stroke-linejoin:miter;stroke-miterlimit:4;stroke-opacity:1;stroke-dasharray:none;fill-opacity:1;filter:url(#filter5959)"
       d="m 21.989609,1045.52 c 0.266035,0.051 0.811745,-0.037 0.811745,-0.037 l 0.44655,-0.012 c 0,0 0.946273,-0.037 1.401094,-0.1552 0.18642,-0.048 0.400785,-0.084 0.533008,-0.2238 0.199556,-0.2117 0.134283,-0.5774 0.289938,-0.8231 0.259636,-0.4099 0.679597,-0.6931 1.034612,-1.0238 0.128377,-0.1202 0.287049,-0.2104 0.39662,-0.3479 0.311758,-0.3914 0.6378,-0.826 0.713545,-1.3207 0.03595,-0.2326 -0.133887,-0.6932 -0.133887,-0.6932 0,0 0.225615,0.4961 0.189396,0.7521 -0.07814,0.5511 -0.499305,1.0033 -0.841446,1.4423 -0.362593,0.4657 -0.931704,0.752 -1.26526,1.2389 -0.202135,0.2946 -0.141783,0.7639 -0.422543,0.9849 -0.475749,0.3744 -1.790908,0.3036 -1.790908,0.3036 0,0 0.69976,0.232 0.978621,0.4603 0.356174,0.2917 0.822359,1.1096 0.822359,1.1096 0,0 -0.490384,-0.5822 -0.807935,-0.781 -0.594094,-0.3719 -1.274295,-0.7344 -1.975081,-0.7217 -0.228196,0 -0.570168,0.039 -0.633852,0.2582 -0.03584,0.121 0.102295,0.2622 0.219698,0.3089 0.180261,0.071 0.453027,-0.2678 0.570526,-0.1135 0.105125,0.1381 -0.233871,0.4654 -0.233871,0.4654 0,0 0.593305,0 0.871186,0.084 0.513746,0.165 1.400861,0.811 1.400861,0.811 l -0.328662,0.015 c 0,0 -0.514632,-0.3695 -0.800974,-0.5002 -0.285911,-0.1298 -0.607372,-0.3882 -0.900878,-0.2763 -0.187378,0.071 -0.429012,0.3516 -0.311766,0.5145 0.0967,0.1345 0.966114,0.535 1.500814,0.5871 0.337496,0.033 1.00126,-0.1804 1.00126,-0.1804 l -0.514117,0.2394 c 0,0 -0.483443,0.1321 -0.721683,0.088 -0.509847,-0.097 -1.375826,-0.7291 -1.375826,-0.7291 0,0 0.220776,0.3423 0.349996,0.4964 0.356303,0.4243 0.812718,0.7314 0.897798,1.2493 0.04608,0.2808 -0.221863,0.8272 -0.221863,0.8272 0,0 0.20955,-0.5567 0.150749,-0.8292 -0.130358,-0.6043 -1.263877,-1.5953 -1.263877,-1.5953 l -0.20903,0 c 0,0 0.418778,0.8064 0.488526,1.2473 0.04467,0.2815 -0.05047,0.8536 -0.05047,0.8536 l -0.03337,-0.667 -0.419901,0.5903 c 0,0 0.29954,-0.4871 0.35156,-0.7621 0.02399,-0.1253 0.0092,-0.1998 -0.02155,-0.3827 -0.06151,-0.3632 -0.50326,-0.9115 -0.50326,-0.9115 l -0.157291,0.012 -0.06907,1.8368 0.699046,1.1043 -0.663946,-1.0363 -0.447114,0.6701 0.373027,-0.8301 -0.01829,-0.3526 -0.05486,-1.0577 -0.165442,-0.3541 -0.126508,0.2892 -0.07494,0.8574 c 0,0 0.121827,0.8307 0.297527,1.2227 0.09081,0.2024 0.252691,0.3629 0.390727,0.5422 0.276748,0.3591 0.898777,1.0269 0.898777,1.0269 l -0.276155,-0.2319 -1.056834,-1.1657 c 0,0 0.334069,0.823 0.110605,1.1784 -0.150176,0.2388 -0.745655,0.3298 -0.745655,0.3298 l 0.0329,-0.1031 c 0,0 0.512706,-0.08 0.623953,-0.2814 0.193756,-0.3507 -0.112285,-1.2322 -0.112285,-1.2322 l -0.284307,-1.3527 c 0,0 -0.277805,0.8355 -0.327904,0.8844 -0.06116,0.06 -0.232964,0.085 -0.256796,0 -0.01912,-0.065 0.271722,-0.4844 0.336392,-0.7509 0.03177,-0.1325 0.128718,-0.323 0.02194,-0.4079 -0.101648,-0.082 -0.27396,0.026 -0.375405,0.1076 -0.165916,0.1336 -0.236973,0.3599 -0.304498,0.562 -0.04716,0.1404 -0.0662,0.4394 -0.0662,0.4394 0,0 -0.104068,-0.2667 -0.08727,-0.403 0.03274,-0.2646 0.155036,-0.5397 0.353959,-0.717 0.159352,-0.1424 0.443455,-0.075 0.603504,-0.2166 0.208001,-0.1842 0.320531,-0.4721 0.374136,-0.7446 0.04065,-0.2065 0.102974,-0.484 -0.04902,-0.6296 -0.139586,-0.1336 -0.390774,-0.062 -0.579228,-0.02 -0.211656,0.047 -0.393368,0.1852 -0.578484,0.2985 -0.389521,0.2385 -0.709109,0.586 -1.113295,0.7985 -0.451247,0.2372 -0.934739,0.4426 -1.438834,0.5183 -0.656042,0.099 -1.987793,-0.095 -1.987793,-0.095 l -0.280263,-0.2259 c 0,0 0.906375,0.09 1.360814,0.082 0.541732,-0.01 1.488366,-0.1217 1.618092,-0.1541 0.129711,-0.032 1.072201,-0.3132 1.315904,-0.7567 0.0524,-0.096 0.06406,-0.2521 -0.01429,-0.3286 -0.134914,-0.1315 -0.37993,-0.043 -0.565263,-0.01 -0.826066,0.1482 -1.718679,0.358 -2.34487,0.9168 -0.236497,0.2114 -0.20594,0.6326 -0.444794,0.8414 -0.03086,0.027 -0.116005,0.043 -0.116005,0.043 0,0 0.149833,-0.7042 0.392251,-0.9434 0.627914,-0.6196 2.457057,-0.9833 2.457057,-0.9833 0,0 -0.646953,0.1824 -0.97107,0.139 -0.179748,-0.024 -0.499294,-0.2163 -0.499294,-0.2163 0,0 -0.770884,-0.2964 -1.024929,-0.6 -0.07914,-0.095 -0.12755,-0.3477 -0.12755,-0.3477 0,0 0.649938,0.1461 0.968833,0.2414 0.679931,0.2038 1.906117,0.6712 2.009235,0.7041 0.103278,0.033 0.535181,-0.03 0.702965,-0.2076 0.110687,-0.1171 0.159785,-0.1074 0.06747,-0.2395 -0.261599,-0.3752 -0.939361,-0.2348 -1.319094,-0.3988 -0.620856,-0.2678 -1.214288,-0.5999 -1.846529,-0.8397 -1.682782,-0.6381 -5.161276,-1.5854 -5.161276,-1.5854 0,0 1.038355,0.041 1.543283,0.1517 0.910221,0.1987 1.778987,0.5611 2.642075,0.9118 0.834891,0.3392 1.669787,0.8431 2.538823,1.0816 0.486018,0.1343 1.251228,0.3288 1.477853,0.2407 0.240751,-0.093 -0.518001,-0.6542 -0.518001,-0.6542 0,0 -0.989782,-0.4139 -1.423722,-0.7218 -0.69522,-0.4933 -1.250543,-1.1599 -1.844719,-1.7713 -0.373634,-0.3846 -0.693301,-0.8208 -1.080312,-1.1919 -0.388044,-0.3722 -1.239286,-1.0324 -1.239286,-1.0324 0,0 0.448889,0.1058 0.636577,0.2316 0.702032,0.4687 1.120827,1.2634 1.712343,1.8656 0.556577,0.5667 1.089,1.1688 1.726529,1.6427 0.447227,0.3324 1.452407,0.8275 1.452407,0.8275 0,0 -0.886889,-0.8524 -1.35843,-1.2466 -0.455537,-0.3807 -1.011809,-0.6449 -1.41797,-1.0781 -0.383037,-0.4082 -0.54907,-0.988 -0.928835,-1.3994 -0.445675,-0.4825 -1.549913,-1.2167 -1.549913,-1.2167 l 0.02627,-0.065 c 0,0 1.127422,0.6411 1.569055,1.1035 0.389445,0.4078 0.527301,1.0117 0.908648,1.4271 0.359067,0.3911 0.850672,0.6359 1.265775,0.9669 0.639633,0.5098 1.886692,1.5687 1.886692,1.5687 0,0 0.453372,0.1955 0.624321,0.074 0.08119,-0.058 0.115839,-0.2072 0.06508,-0.292 -0.885286,-1.4607 -2.185686,-1.8283 -2.65748,-2.6619 -0.294169,-0.5198 -0.08416,-1.2098 -0.299835,-1.7669 -0.205532,-0.5308 -0.475693,-1.0844 -0.92255,-1.4372 -0.308891,-0.244 -1.114593,-0.3899 -1.114593,-0.3899 l -0.211218,-0.1754 c 0,0 1.003012,0.1288 1.389141,0.4207 0.468768,0.3538 0.741393,0.9338 0.953863,1.4812 0.213123,0.5495 0.01378,1.2258 0.296085,1.7431 0.352176,0.6452 1.628609,1.4864 1.628609,1.4864 0,0 0.451981,-0.86 -0.153739,-1.6911 -0.122141,-0.1676 -0.180856,-0.4481 -0.180856,-0.4481 l -0.835081,-1.5143 c 0,0 0.525192,0.7727 0.747908,1.1825 0.218503,0.4019 0.451468,0.8056 0.574076,1.2462 0.103354,0.3714 0.143874,0.7303 -0.05408,1.1482 -0.05465,0.1152 0.106212,0.2332 0.175614,0.3402 0.234713,0.3628 0.80744,1.0138 0.80744,1.0138 0,0 0.333856,0.043 0.458391,-0.047 0.155973,-0.1128 0.236488,-0.5269 0.236488,-0.5269 0.08086,-1.8261 -0.631957,-3.8244 -1.513638,-5.2268 1.139146,1.6405 1.445983,2.8053 1.688311,5.166 0,0 1.06542,-1.4055 1.169633,-2.2444 0.01484,-0.1148 -0.07046,-0.2239 -0.07525,-0.3398 -0.0095,-0.2243 0.113882,-0.4105 0.08976,-0.6673 -0.02327,-0.2477 -0.223417,-0.4358 -0.202745,-0.6673 0.01064,-0.115 0.04927,-0.3266 0.03395,-0.5201 -0.01656,-0.2094 -0.0874,-0.402 -0.06793,-0.5483 0.04074,-0.3075 0.701209,-0.7877 0.701209,-0.7877 0,0 -0.543007,0.4558 -0.651163,0.7755 -0.103883,0.3067 0.199105,-0.081 0.05086,1.0338 -0.02742,0.2075 0.278943,0.3457 0.294739,0.5546 0.01973,0.2556 -0.150598,0.4548 -0.159787,0.711 -8.37e-4,0.1097 -0.0097,0.265 0.08629,0.3176 0.119848,0.065 0.296347,-0.1082 0.296347,-0.1082 0,0 1.430389,-0.3558 1.683491,-0.2861 0.07607,0.025 -0.03325,-0.1297 0.04576,-0.1417 0.06715,-0.011 -0.135087,-0.2674 -0.30339,-0.3541 -0.259338,-0.1339 -0.697688,-0.5256 -0.697688,-0.5256 1.98e-4,-0.032 0.871397,0.5259 1.106936,0.7925 0.224958,-0.1467 -0.506512,-1.2516 -0.3435,-1.3588 l 0.235732,0.4902 -0.02746,-0.8045 0.158136,0.8577 0.312228,0.037 c 0,0 -0.223498,0.012 -0.267169,0.075 -0.06785,0.1046 -0.05363,0.4411 0.04945,0.5715 0.02086,0.026 0.05893,0.055 0.09295,0.047 0.03357,-0.01 0.02775,-0.074 0.06072,-0.083 0.02807,-0.01 0.05752,0.021 0.07925,0.036 0.03259,0.033 0.0672,0.081 0.05631,0.1261 -0.0252,0.1035 -0.273106,0.094 -0.250913,0.1984 0.0317,0.1502 0.293014,0.1209 0.446647,0.1145 0.270497,-0.012 0.773421,-0.3522 0.773421,-0.3522 l -0.652745,0.4192 0.488368,0.1438 c 0,0 -0.699296,-0.1331 -0.572628,-0.03 l 0.564266,0.447 c 0,0 -0.411832,-0.2939 -0.638701,-0.4028 -0.139919,-0.067 -0.345617,-0.275 -0.440335,-0.1521 -0.03946,0.054 0.06123,0.1231 0.111692,0.1664 0.177084,0.1512 0.326998,0.087 0.492958,0.2504 0.06932,0.068 0.273141,0.2155 0.273141,0.2155 0,0 -0.127997,-0.063 -0.216586,-0.086 -0.165839,-0.042 -0.417414,-0.2575 -0.467992,-0.1725 0,0 0.173346,0.1496 0.266577,0.2158 0.181991,0.1293 0.56952,0.3524 0.56952,0.3524 l -0.495688,-0.1921 c 0,0 0.07514,0.1501 0.08521,0.2318 0.03618,0.2945 -0.09498,0.8848 -0.09498,0.8848 0,0 0.05504,-0.8123 0.0067,-0.8837 -0.170329,-0.2682 -0.367863,-0.6298 -0.556335,-0.6609 -0.05419,-0.01 -0.168277,0.2589 -0.168277,0.2589 0,0 0.073,-0.3407 0.03986,-0.374 -0.05128,-0.052 -0.182896,-0.025 -0.215259,0.033 -0.266556,0.5116 -1.247995,0.5801 -1.257182,0.5209 0,0 1.09281,-0.2394 1.128107,-0.5406 0.0075,-0.059 -0.09453,-0.1035 -0.150165,-0.1202 -0.500277,-0.1513 -1.151505,0 -1.522942,0.3721 -0.152903,0.1513 -0.198777,0.5268 -0.159914,0.6253 0.03364,0.085 1.35725,1.0448 1.613163,-0.054 l -0.04148,0.3119 c 0,0 0.140247,-0.081 0.218137,-0.092 0.09112,-0.013 0.274321,0.028 0.274321,0.028 0,0 -0.133599,0.04 -0.197751,0.068 -0.140849,0.06 -0.408371,0.2106 -0.408371,0.2106 -0.304934,0.3015 -0.92477,-0.018 -1.549137,-0.3468 0,0 -0.595397,0.8448 -0.826026,1.3052 -0.174652,0.3492 -0.500729,0.7129 -0.417636,1.0945 0.03308,0.1522 0.203537,0.2412 0.332925,0.328 0.16949,0.1137 0.362349,0.2043 0.563316,0.2405 z"
       id="path5917"
       inkscape:connector-curvature="0" />
    <g
       id="g3851"
       transform="translate(-181.97671,-0.80225726)">
      <path
         style="fill:#000000;fill-opacity:1;stroke:none;filter:url(#filter3918)"
         d="m 197.21672,1028.887 c 0.11268,0.8615 -0.2429,1.7595 -0.0474,2.6061 0.18756,0.8121 1.13718,2.0374 1.13718,2.2269 0,0.1896 -1.15702,2.6761 -0.90027,4.0276 0.11039,0.581 1.05113,0.8801 0.99504,1.4689 -0.0699,0.7337 -1.27127,0.8869 -1.56363,1.5636 -0.20682,0.4787 0.1434,1.0783 -0.0474,1.5636 -0.12285,0.3125 -0.43205,0.5147 -0.66335,0.7581 -1.48495,1.5627 -4.64351,4.5014 -4.64351,4.5014 0,0 2.0167,-0.729 3.31438,-2.187 0.66506,-0.7472 1.57035,-1.0738 2.03989,-1.651 0.76302,-0.938 0.61526,-2.4604 1.46885,-3.3168 0,0 1.42575,-0.8569 2.22699,-0.995 1.7799,-0.3069 3.66464,0.9214 5.40163,0.4264 1.28205,-0.3654 1.89998,-2.5404 3.22202,-2.3691 0,0 2.02962,2.6969 3.17464,3.9327 1.76937,1.9097 5.25948,5.3543 5.68593,5.3543 0.42644,0 7.06002,-2.2744 7.06002,-2.2744 0,0 -2.51637,0.1584 -3.74324,0.4264 -0.99054,0.2165 -2.70081,0.9477 -2.89034,0.9477 -0.18953,0 -3.64847,-3.0799 -4.21706,-3.838 -0.56859,-0.7581 -2.64316,-2.3557 -3.31679,-3.9328 -0.34942,-0.818 0.1407,-1.872 -0.28429,-2.6534 -0.7189,-1.3218 -2.09466,-2.3221 -3.50632,-2.8429 -1.15617,-0.4266 -2.52625,0.2934 -3.69585,-0.095 -1.06472,-0.3534 -1.62807,-1.8808 -2.7482,-1.9427 -0.68468,-0.038 -1.1668,1.2569 -1.80054,0.995 -1.04863,-0.4334 -0.59448,-2.1911 -0.94765,-3.2694 -0.58635,-1.7902 -1.38257,-3.5083 -1.9427,-5.3068 -0.65193,-2.0934 -2.22379,-4.2534 -1.6458,-6.3683 0.37489,-1.3718 3.0199,-3.0135 3.0199,-3.0135 0,0 -2.7096,0.6368 -3.50632,2.3217 -1.54354,3.2643 1.1288,5.879 2.32176,9.2871 0.41788,1.1937 0.87838,2.3943 1.04241,3.6484 z"
         id="path3908"
         inkscape:connector-curvature="0"
         sodipodi:nodetypes="sssssssscsssssssscsssssssssssscsss" />
      <rect
         clip-path="url(#clipPath3845)"
         y="1001.3622"
         x="0"
         height="51"
         width="241"
         id="rect4918"
         style="fill:url(#linearGradient3982);fill-opacity:1;stroke:none" />
      <g
         transform="matrix(0.8347251,0,0,0.8347251,51.62105,155.93796)"
         style="stroke-width:0.83859944;stroke-miterlimit:4;stroke-dasharray:none"
         id="g4907">
        <g
           style="stroke-width:0.83859944;stroke-miterlimit:4;stroke-dasharray:none"
           id="g4897"
           transform="translate(-2.5,-0.89285714)">
          <path
             sodipodi:nodetypes="csc"
             inkscape:connector-curvature="0"
             id="path4107"
             d="m 204.9347,1015.6179 c -4.67196,6.5029 -0.83246,13.1318 -5.49271,20.5819 l -9.28077,14.8366"
             style="fill:none;stroke:#000000;stroke-width:0.83859944;stroke-linecap:butt;stroke-linejoin:miter;stroke-miterlimit:4;stroke-opacity:1;stroke-dasharray:none" />
          <path
             style="fill:none;stroke:#000000;stroke-width:0.83859944;stroke-linecap:butt;stroke-linejoin:miter;stroke-miterlimit:4;stroke-opacity:1;stroke-dasharray:none"
             d="m 205.72293,1016.406 c -4.67196,6.5029 -1.17884,12.7269 -6.00226,20.0724 l -9.55947,14.5579"
             id="path4877"
             inkscape:connector-curvature="0"
             sodipodi:nodetypes="csc" />
          <path
             style="fill:none;stroke:#000000;stroke-width:0.83859944;stroke-linecap:butt;stroke-linejoin:miter;stroke-miterlimit:4;stroke-opacity:1;stroke-dasharray:none"
             d="m 219.93553,1026.7874 c -4.89075,6.34 -12.28704,4.6107 -18.14366,11.162 l -11.67177,13.0563"
             id="path4879"
             inkscape:connector-curvature="0"
             sodipodi:nodetypes="csc" />
          <path
             sodipodi:nodetypes="csc"
             inkscape:connector-curvature="0"
             id="path4881"
             d="m 219.08564,1026.0822 c -4.89079,6.3399 -11.9085,4.9714 -17.61873,11.6508 l -11.34672,13.2727"
             style="fill:none;stroke:#000000;stroke-width:0.83859944;stroke-linecap:butt;stroke-linejoin:miter;stroke-miterlimit:4;stroke-opacity:1;stroke-dasharray:none" />
          <path
             sodipodi:nodetypes="cc"
             transform="translate(0,1001.3622)"
             inkscape:connector-curvature="0"
             id="path4887"
             d="M 204.9347,14.2557 214.375,1.1785713"
             style="fill:none;stroke:#000000;stroke-width:0.83859944;stroke-linecap:butt;stroke-linejoin:miter;stroke-miterlimit:4;stroke-opacity:1;stroke-dasharray:none" />
          <path
             sodipodi:nodetypes="cc"
             style="fill:none;stroke:#000000;stroke-width:0.83859944;stroke-linecap:butt;stroke-linejoin:miter;stroke-miterlimit:4;stroke-opacity:1;stroke-dasharray:none"
             d="m 205.72293,1016.406 9.4403,-13.0771"
             id="path4889"
             inkscape:connector-curvature="0" />
          <path
             style="fill:none;stroke:#000000;stroke-width:1.79699886;stroke-miterlimit:4;stroke-opacity:1;stroke-dasharray:none;filter:url(#filter3944)"
             d="m 214.58891,1004.1455 -9.4403,13.0771 c -4.67196,6.5029 -0.78318,13.1628 -5.49271,20.5819 l -9.30133,14.8212 11.65121,-13.0716 c 5.84704,-6.5599 13.25291,-4.822 18.14366,-11.1619 l 9.4403,-13.0771"
             id="path3922"
             inkscape:connector-curvature="0"
             sodipodi:nodetypes="ccscscc" />
          <path
             sodipodi:nodetypes="cc"
             inkscape:connector-curvature="0"
             id="path4891"
             d="m 219.93553,1026.7875 9.4403,-13.0771"
             style="fill:none;stroke:#000000;stroke-width:0.83859944;stroke-linecap:butt;stroke-linejoin:miter;stroke-miterlimit:4;stroke-opacity:1;stroke-dasharray:none" />
          <path
             sodipodi:nodetypes="cc"
             style="fill:none;stroke:#000000;stroke-width:0.83859944;stroke-linecap:butt;stroke-linejoin:miter;stroke-miterlimit:4;stroke-opacity:1;stroke-dasharray:none"
             d="m 219.08564,1026.0822 9.4403,-13.0771"
             id="path4893"
             inkscape:connector-curvature="0" />
          <path
             style="fill:none;stroke:#000000;stroke-width:0.83859944;stroke-linecap:butt;stroke-linejoin:miter;stroke-miterlimit:4;stroke-opacity:1;stroke-dasharray:none"
             d="m 204.9347,1015.6179 c -4.67196,6.5029 -0.83246,13.1318 -5.49271,20.5819 l -9.28077,14.8366"
             id="path4936"
             inkscape:connector-curvature="0"
             sodipodi:nodetypes="csc" />
          <path
             sodipodi:nodetypes="csc"
             inkscape:connector-curvature="0"
             id="path4938"
             d="m 219.93553,1026.7874 c -4.89075,6.34 -12.28704,4.6107 -18.14366,11.162 l -11.67177,13.0563"
             style="fill:none;stroke:#000000;stroke-width:0.83859944;stroke-linecap:butt;stroke-linejoin:miter;stroke-miterlimit:4;stroke-opacity:1;stroke-dasharray:none" />
          <path
             style="fill:none;stroke:#000000;stroke-width:0.83859944;stroke-linecap:butt;stroke-linejoin:miter;stroke-miterlimit:4;stroke-opacity:1;stroke-dasharray:none"
             d="M 204.9347,14.2557 214.375,1.1785713"
             id="path4940"
             inkscape:connector-curvature="0"
             transform="translate(0,1001.3622)"
             sodipodi:nodetypes="cc" />
          <path
             style="fill:none;stroke:#000000;stroke-width:0.83859944;stroke-linecap:butt;stroke-linejoin:miter;stroke-miterlimit:4;stroke-opacity:1;stroke-dasharray:none"
             d="m 219.93553,1026.7875 9.4403,-13.0771"
             id="path4942"
             inkscape:connector-curvature="0"
             sodipodi:nodetypes="cc" />
          <path
             sodipodi:nodetypes="ccscscc"
             inkscape:connector-curvature="0"
             id="path4954"
             d="m 214.375,1002.5408 -9.4403,13.0771 c -4.67196,6.5029 -0.82155,13.1386 -5.49271,20.5819 l -9.30133,14.8212 11.65121,-13.0716 c 5.85662,-6.5513 13.25291,-4.822 18.14366,-11.1619 l 9.4403,-13.0771"
             style="fill:url(#radialGradient3984);fill-opacity:1;stroke:none" />
        </g>
      </g>
      <path
         sodipodi:nodetypes="sssssssscsssssssscsssssssssssscsss"
         inkscape:connector-curvature="0"
         id="path4970"
         d="m 196.83791,1028.2557 c 0.11268,0.8615 -0.2429,1.7595 -0.0474,2.6061 0.18756,0.8121 1.13718,2.0374 1.13718,2.2269 0,0.1896 -1.15702,2.6761 -0.90027,4.0276 0.11039,0.581 1.05113,0.8801 0.99504,1.4689 -0.0699,0.7337 -1.27127,0.8869 -1.56363,1.5636 -0.20682,0.4787 0.1434,1.0783 -0.0474,1.5636 -0.12285,0.3125 -0.43205,0.5147 -0.66335,0.7581 -1.48495,1.5627 -4.64351,4.5014 -4.64351,4.5014 0,0 2.0167,-0.729 3.31438,-2.187 0.66506,-0.7472 1.57035,-1.0738 2.03989,-1.651 0.76302,-0.938 0.61526,-2.4604 1.46885,-3.3168 0,0 1.42575,-0.8569 2.22699,-0.995 1.7799,-0.3069 3.66464,0.9214 5.40163,0.4264 1.28205,-0.3654 1.89998,-2.5404 3.22202,-2.3691 0,0 2.02962,2.6969 3.17464,3.9327 1.76937,1.9097 5.25948,5.3543 5.68593,5.3543 0.42644,0 7.06002,-2.2744 7.06002,-2.2744 0,0 -2.51637,0.1584 -3.74324,0.4264 -0.99054,0.2165 -2.70081,0.9477 -2.89034,0.9477 -0.18953,0 -3.64847,-3.0799 -4.21706,-3.838 -0.56859,-0.7581 -2.64316,-2.3557 -3.31679,-3.9328 -0.34942,-0.818 0.1407,-1.872 -0.28429,-2.6534 -0.7189,-1.3218 -2.09466,-2.3221 -3.50632,-2.8429 -1.15617,-0.4266 -2.52625,0.2934 -3.69585,-0.095 -1.06472,-0.3534 -1.62807,-1.8808 -2.7482,-1.9427 -0.68468,-0.038 -1.1668,1.2569 -1.80054,0.995 -1.04863,-0.4334 -0.59448,-2.1911 -0.94765,-3.2694 -0.58635,-1.7902 -1.38257,-3.5083 -1.9427,-5.3068 -0.65193,-2.0934 -2.22379,-4.2534 -1.6458,-6.3683 0.37489,-1.3718 3.0199,-3.0135 3.0199,-3.0135 0,0 -2.7096,0.6368 -3.50632,2.3217 -1.54354,3.2643 1.1288,5.879 2.32176,9.2871 0.41788,1.1937 0.87838,2.3943 1.04241,3.6484 z"
         style="fill:none;stroke:#000000;stroke-width:0.25;stroke-linecap:butt;stroke-linejoin:miter;stroke-miterlimit:4;stroke-opacity:1;stroke-dasharray:none" />
    </g>
  </g>
</svg>
